<svg width="500" height="500" viewBox="0 0 500 500" xmlns="http://www.w3.org/2000/svg">
  <path id="starfish"
    d="M249.5 97C283.738 96 263 193 283.738 202.375C304.477 211.75 384.072 163.75 394.536 202.375C405 241 310.798 247 304.899 267.5C299 288 373.376 351.75 339.137 372.875C304.899 394 277 308 249.5 307.75C222 307.5 194.101 396 159.863 372.875C125.624 349.75 204 288 194.101 267.5C184.202 247 92.9277 238.75 104.464 202.375C116 166 205 217 215.262 202.375C225.523 187.75 215.262 98 249.5 97Z"
    fill="none"
    stroke="black"
    stroke-width="2"
  />
</svg>