<svg width="350" height="350" viewBox="0 0 350 350" fill="none" xmlns="http://www.w3.org/2000/svg">
<mask id="path-1-inside-1_1513_1120" fill="white">
<path fill-rule="evenodd" clip-rule="evenodd" d="M140 10C140 4.47716 144.477 0 150 0H200C205.523 0 210 4.47716 210 10V44.5812C221.618 47.6914 232.619 52.3128 242.778 58.2219L266.929 34.0711C270.834 30.1658 277.166 30.1658 281.071 34.0711L316.426 69.4264C320.332 73.3316 320.332 79.6633 316.426 83.5685L292.143 107.852C297.877 117.836 302.373 128.621 305.419 140H340C345.523 140 350 144.477 350 150V200C350 205.523 345.523 210 340 210H305.419C302.373 221.379 297.877 232.164 292.143 242.148L316.914 266.919C320.819 270.824 320.819 277.156 316.914 281.061L281.558 316.416C277.653 320.322 271.322 320.322 267.416 316.416L242.778 291.778C232.619 297.687 221.618 302.309 210 305.419V340C210 345.523 205.523 350 200 350H150C144.477 350 140 345.523 140 340V305.419C128.621 302.373 117.836 297.877 107.852 292.143L83.0812 316.914C79.1759 320.819 72.8443 320.819 68.939 316.914L33.5837 281.558C29.6785 277.653 29.6785 271.322 33.5837 267.416L58.2219 242.778C52.3129 232.619 47.6914 221.618 44.5812 210H10C4.47717 210 0 205.523 0 200V150C0 144.477 4.47717 140 10 140H44.5812C47.6914 128.382 52.3129 117.381 58.2219 107.222L34.071 83.0711C30.1658 79.1658 30.1658 72.8342 34.071 68.9289L69.4264 33.5736C73.3317 29.6684 79.6633 29.6684 83.5685 33.5736L107.852 57.8575C117.836 52.1226 128.621 47.6272 140 44.5812V10ZM175 225C202.614 225 225 202.614 225 175C225 147.386 202.614 125 175 125C147.386 125 125 147.386 125 175C125 202.614 147.386 225 175 225Z"/>
</mask>
<path d="M210 44.5812H199V53.0239L207.156 55.2071L210 44.5812ZM242.778 58.2219L237.247 67.7304L244.568 71.9884L250.556 66.0001L242.778 58.2219ZM266.929 34.0711L274.707 41.8492L274.707 41.8492L266.929 34.0711ZM281.071 34.0711L273.293 41.8492L273.293 41.8493L281.071 34.0711ZM316.426 69.4264L308.648 77.2046L308.648 77.2046L316.426 69.4264ZM316.426 83.5685L308.648 75.7903L308.648 75.7904L316.426 83.5685ZM292.143 107.852L284.364 100.074L278.409 106.029L282.604 113.332L292.143 107.852ZM305.419 140L294.793 142.844L296.976 151H305.419V140ZM305.419 210V199H296.976L294.793 207.156L305.419 210ZM292.143 242.148L282.604 236.668L278.409 243.971L284.364 249.926L292.143 242.148ZM316.914 266.919L324.692 259.141L324.692 259.141L316.914 266.919ZM242.778 291.778L250.556 284L244.568 278.012L237.247 282.27L242.778 291.778ZM210 305.419L207.156 294.793L199 296.976V305.419H210ZM140 305.419H151V296.976L142.844 294.793L140 305.419ZM107.852 292.143L113.332 282.604L106.029 278.409L100.074 284.364L107.852 292.143ZM33.5837 267.416L25.8055 259.638L25.8055 259.638L33.5837 267.416ZM58.2219 242.778L66.0001 250.556L71.9884 244.568L67.7304 237.247L58.2219 242.778ZM44.5812 210L55.2071 207.156L53.0239 199H44.5812V210ZM44.5812 140V151H53.0239L55.2071 142.844L44.5812 140ZM58.2219 107.222L67.7304 112.753L71.9884 105.432L66.0001 99.4437L58.2219 107.222ZM34.071 83.0711L26.2928 90.8492L26.2929 90.8493L34.071 83.0711ZM34.071 68.9289L26.2929 61.1507L26.2928 61.1508L34.071 68.9289ZM69.4264 33.5736L61.6482 25.7954L61.6482 25.7954L69.4264 33.5736ZM83.5685 33.5736L91.3467 25.7954L91.3467 25.7954L83.5685 33.5736ZM107.852 57.8575L100.074 65.6356L106.029 71.5906L113.332 67.3957L107.852 57.8575ZM140 44.5812L142.844 55.2071L151 53.0239V44.5812H140ZM150 -11C138.402 -11 129 -1.59799 129 10H151C151 10.5523 150.552 11 150 11V-11ZM200 -11H150V11H200V-11ZM221 10C221 -1.59799 211.598 -11 200 -11V11C199.448 11 199 10.5523 199 10H221ZM221 44.5812V10H199V44.5812H221ZM248.309 48.7134C237.321 42.3221 225.418 37.3213 212.844 33.9554L207.156 55.2071C217.819 58.0615 227.917 62.3035 237.247 67.7304L248.309 48.7134ZM259.151 26.2929L235 50.4438L250.556 66.0001L274.707 41.8492L259.151 26.2929ZM288.849 26.2929C280.648 18.0919 267.352 18.0919 259.151 26.2929L274.707 41.8492C274.317 42.2398 273.683 42.2398 273.293 41.8492L288.849 26.2929ZM324.205 61.6482L288.849 26.2929L273.293 41.8493L308.648 77.2046L324.205 61.6482ZM324.205 91.3467C332.406 83.1457 332.406 69.8492 324.205 61.6482L308.648 77.2046C308.258 76.8141 308.258 76.1809 308.648 75.7903L324.205 91.3467ZM299.921 115.631L324.205 91.3467L308.648 75.7904L284.364 100.074L299.921 115.631ZM316.045 137.156C312.748 124.841 307.884 113.171 301.681 102.373L282.604 113.332C287.871 122.5 291.997 132.401 294.793 142.844L316.045 137.156ZM340 129H305.419V151H340V129ZM361 150C361 138.402 351.598 129 340 129V151C339.448 151 339 150.552 339 150H361ZM361 200V150H339V200H361ZM340 221C351.598 221 361 211.598 361 200H339C339 199.448 339.448 199 340 199V221ZM305.419 221H340V199H305.419V221ZM301.681 247.627C307.884 236.829 312.748 225.159 316.045 212.844L294.793 207.156C291.997 217.599 287.871 227.5 282.604 236.668L301.681 247.627ZM324.692 259.141L299.921 234.369L284.364 249.926L309.136 274.697L324.692 259.141ZM324.692 288.839C332.893 280.638 332.893 267.342 324.692 259.141L309.136 274.697C308.745 274.307 308.745 273.673 309.136 273.283L324.692 288.839ZM289.337 324.194L324.692 288.839L309.136 273.283L273.78 308.638L289.337 324.194ZM259.638 324.194C267.839 332.395 281.136 332.395 289.337 324.194L273.78 308.638C274.171 308.248 274.804 308.248 275.194 308.638L259.638 324.194ZM235 299.556L259.638 324.194L275.194 308.638L250.556 284L235 299.556ZM212.844 316.045C225.418 312.679 237.321 307.678 248.309 301.287L237.247 282.27C227.917 287.696 217.819 291.938 207.156 294.793L212.844 316.045ZM221 340V305.419H199V340H221ZM200 361C211.598 361 221 351.598 221 340H199C199 339.448 199.448 339 200 339V361ZM150 361H200V339H150V361ZM129 340C129 351.598 138.402 361 150 361V339C150.552 339 151 339.448 151 340H129ZM129 305.419V340H151V305.419H129ZM102.373 301.681C113.171 307.884 124.841 312.748 137.156 316.045L142.844 294.793C132.401 291.997 122.5 287.871 113.332 282.604L102.373 301.681ZM90.8594 324.692L115.631 299.921L100.074 284.364L75.303 309.136L90.8594 324.692ZM61.1609 324.692C69.3619 332.893 82.6583 332.893 90.8594 324.692L75.303 309.136C75.6935 308.745 76.3267 308.745 76.7172 309.136L61.1609 324.692ZM25.8055 289.337L61.1609 324.692L76.7172 309.136L41.3619 273.78L25.8055 289.337ZM25.8055 259.638C17.6045 267.839 17.6045 281.136 25.8055 289.337L41.3619 273.78C41.7524 274.171 41.7524 274.804 41.3619 275.194L25.8055 259.638ZM50.4438 235L25.8055 259.638L41.3618 275.195L66.0001 250.556L50.4438 235ZM33.9554 212.844C37.3213 225.418 42.3222 237.321 48.7134 248.309L67.7304 237.247C62.3036 227.917 58.0615 217.819 55.2071 207.156L33.9554 212.844ZM10 221H44.5812V199H10V221ZM-11 200C-11 211.598 -1.59798 221 10 221V199C10.5523 199 11 199.448 11 200H-11ZM-11 150V200H11V150H-11ZM10 129C-1.59792 129 -11 138.402 -11 150H11C11 150.552 10.5523 151 10 151V129ZM44.5812 129H10V151H44.5812V129ZM48.7134 101.691C42.3222 112.679 37.3213 124.582 33.9554 137.156L55.2071 142.844C58.0615 132.181 62.3036 122.083 67.7304 112.753L48.7134 101.691ZM26.2929 90.8493L50.4438 115L66.0001 99.4437L41.8492 75.2929L26.2929 90.8493ZM26.2928 61.1508C18.0919 69.3518 18.0919 82.6482 26.2928 90.8492L41.8492 75.2929C42.2398 75.6834 42.2398 76.3166 41.8492 76.7071L26.2928 61.1508ZM61.6482 25.7954L26.2929 61.1507L41.8492 76.7071L77.2046 41.3518L61.6482 25.7954ZM91.3467 25.7954C83.1457 17.5944 69.8493 17.5944 61.6482 25.7954L77.2045 41.3518C76.814 41.7423 76.1809 41.7423 75.7904 41.3518L91.3467 25.7954ZM115.631 50.0793L91.3467 25.7954L75.7904 41.3518L100.074 65.6356L115.631 50.0793ZM137.156 33.9554C124.841 37.2517 113.171 42.1163 102.373 48.3192L113.332 67.3957C122.5 62.1289 132.401 58.0026 142.844 55.2071L137.156 33.9554ZM129 10V44.5812H151V10H129ZM214 175C214 196.539 196.539 214 175 214V236C208.689 236 236 208.689 236 175H214ZM175 136C196.539 136 214 153.461 214 175H236C236 141.311 208.689 114 175 114V136ZM136 175C136 153.461 153.461 136 175 136V114C141.311 114 114 141.311 114 175H136ZM175 214C153.461 214 136 196.539 136 175H114C114 208.689 141.311 236 175 236V214Z" fill="#D9D9D9" mask="url(#path-1-inside-1_1513_1120)"/>
</svg>
