<svg width="1000" height="1000" viewBox="0 0 1000 1000" fill="none" xmlns="http://www.w3.org/2000/svg">
<g clip-path="url(#clip0_190_116)">
<rect width="1000" height="1000" fill="white"/>
<path d="M397.486 320.829L397.491 320.839L397.497 320.848C402.557 329.192 410.45 336.793 421.144 343.66L421.152 343.665C431.845 350.245 445.508 356.243 462.132 361.665C478.757 367.087 498.511 371.935 521.389 376.212L600.312 391.596L600.313 391.597C653.53 401.848 699.063 415.372 736.917 432.163C774.774 448.956 805.73 468.729 829.796 491.475L829.798 491.477C853.866 513.94 871.517 539.237 882.763 567.37L882.765 567.375C894.326 595.517 900.266 626.223 900.579 659.5C900.266 716.956 884.478 765.564 853.236 805.352C821.986 845.151 777.285 875.447 719.099 896.221L719.098 896.221C661.225 916.996 591.598 927.39 510.206 927.39C426.625 927.39 353.71 916.142 291.449 893.657C229.517 871.178 181.371 836.616 146.986 789.981C113.001 743.182 95.7951 683.341 95.4057 610.422H342.486C344.115 637.074 351.49 659.522 364.633 677.74C377.85 696.063 396.411 709.936 420.291 719.368L420.293 719.369C444.481 728.799 473.203 733.507 506.448 733.507C534.356 733.507 557.747 730.369 576.606 724.079C595.455 717.792 609.792 709.061 619.576 697.863C629.359 686.667 634.417 673.877 634.733 659.509L634.733 659.498L634.733 659.486C634.417 645.971 629.514 634.174 620.039 624.116C610.878 613.774 595.761 604.623 574.748 596.634C553.725 588.357 525.349 580.658 489.633 573.532L489.631 573.532L393.793 554.728C393.792 554.728 393.792 554.727 393.792 554.727C308.654 537.927 241.557 509.888 192.467 470.637C143.737 431.138 119.52 377.295 119.833 309.052L119.833 309.047C119.52 253.595 135.772 205.129 168.584 163.625C201.72 121.821 247.527 89.2459 306.029 65.9091L306.343 65.7836V65.4447V0V-0.5H305.843H0H-0.5V0V1000V1000.5H0H1000H1000.5V1000V555.218V0V-0.5H1000H709.871H709.371V0V65.8721V66.2053L709.678 66.3336C766.296 89.9518 809.907 123.234 840.538 166.169L840.54 166.172C871.39 208.693 887.02 258.424 887.422 315.387H638.449C635.847 286.988 624.054 264.783 603.061 248.82C582.263 232.767 550.655 224.783 508.327 224.783C481.361 224.783 459.22 227.778 441.923 233.785C424.955 239.503 412.335 247.38 404.114 257.448C395.903 267.503 391.635 279.004 391.317 291.933C390.687 302.558 392.74 312.195 397.486 320.829Z" stroke="black"/>
</g>
<defs>
<clipPath id="clip0_190_116">
<rect width="1000" height="1000" fill="white"/>
</clipPath>
</defs>
</svg>
