<svg width="100" height="100" viewBox="0 0 100 100" fill="none" xmlns="http://www.w3.org/2000/svg">
<path d="M49.625 5.46875C26.1172 5.46875 4.3125 21.0937 4.3125 49.0859C4.3125 77.2812 26.0859 92.7812 49.625 92.7812C73.1641 92.7812 94.9375 77.6641 94.9375 49.0859C94.8359 20.7734 73.0625 5.46875 49.625 5.46875Z" fill="url(#paint0_radial_1580_618)"/>
<path d="M77.7109 67.6094C86.0254 67.6094 92.7656 62.4432 92.7656 56.0703C92.7656 49.6975 86.0254 44.5312 77.7109 44.5312C69.3965 44.5312 62.6562 49.6975 62.6562 56.0703C62.6562 62.4432 69.3965 67.6094 77.7109 67.6094Z" fill="url(#paint1_radial_1580_618)"/>
<path d="M22.8281 67.6094C31.1426 67.6094 37.8828 62.4432 37.8828 56.0703C37.8828 49.6975 31.1426 44.5312 22.8281 44.5312C14.5137 44.5312 7.77344 49.6975 7.77344 56.0703C7.77344 62.4432 14.5137 67.6094 22.8281 67.6094Z" fill="url(#paint2_radial_1580_618)"/>
<path d="M50 63.7187C56.3081 63.7187 61.4219 58.605 61.4219 52.2969C61.4219 45.9887 56.3081 40.875 50 40.875C43.6919 40.875 38.5781 45.9887 38.5781 52.2969C38.5781 58.605 43.6919 63.7187 50 63.7187Z" fill="url(#paint3_radial_1580_618)"/>
<path d="M87.1016 23.1797C91.2656 29.8984 93.4375 37.8984 93.4375 46.7969C93.4375 60 88.6719 71.1719 79.6875 79.1406C71.4063 86.4062 60.1562 90.4687 48.125 90.4687C34.0156 90.4687 19.2188 84.7266 10.4844 72.5469C18.8906 86.3437 34.7031 92.8125 49.6875 92.8125C61.7187 92.8125 72.9688 88.75 81.25 81.4844C90.2344 73.5156 95 62.3437 95 49.1406C95 39.1875 92.2891 30.3437 87.1016 23.1797Z" fill="#ADBCC3"/>
<path d="M56.7717 11.0554C55.1895 6.47735 50.1023 4.25497 45.4096 6.09543C44.2599 6.54571 43.2072 7.21877 42.3064 8.07091C40.8697 9.42996 39.8878 11.1865 39.5102 13.0913C37.1106 11.7114 33.9413 12.5991 32.4164 15.0679C30.8916 17.5366 31.6101 20.6557 34.005 22.04C34.9471 22.5824 36.0584 22.7938 37.1705 22.6422C38.2826 22.4905 39.3352 21.9841 40.1689 21.1996C40.5154 20.8718 40.8118 20.5004 41.0617 20.0984C41.2338 20.3081 41.4156 20.5003 41.6154 20.6837C44.7059 23.9507 49.926 24.1853 53.6444 21.2223L53.7188 21.3009C56.0041 23.7075 59.9247 23.7065 62.4705 21.2899C65.0163 18.8734 65.2349 14.9589 62.9495 12.5523C61.4084 10.9231 59.0299 10.3427 56.7901 11.0379L56.7717 11.0554Z" fill="url(#paint4_linear_1580_618)"/>
<path d="M34.375 31.9844C31.1016 31.9844 28.125 34.75 28.125 39.3438C28.125 43.9375 31.1016 46.6953 34.375 46.6953C37.6562 46.6953 40.625 43.9297 40.625 39.3438C40.625 34.7578 37.6875 31.9844 34.375 31.9844Z" fill="#422B0D"/>
<path d="M34.1015 35.0547C33.5666 34.8002 32.9527 34.7674 32.3937 34.9635C31.8347 35.1596 31.3759 35.5686 31.1172 36.1015C30.7031 36.9687 30.8906 38.0078 31.5859 38.6797C32.6953 39.2109 34.0312 38.7422 34.5703 37.6328C34.9843 36.7656 34.7968 35.7265 34.1015 35.0547Z" fill="#896024"/>
<path d="M66.6953 31.9844C63.4219 31.9844 60.4453 34.75 60.4453 39.3438C60.4453 43.9375 63.4219 46.6953 66.6953 46.6953C69.9688 46.6953 72.9453 43.9297 72.9453 39.3438C72.9453 34.7578 69.9688 31.9844 66.6953 31.9844Z" fill="#422B0D"/>
<path d="M66.4062 35.0547C65.8713 34.8002 65.2574 34.7674 64.6984 34.9635C64.1394 35.1596 63.6806 35.5686 63.4218 36.1015C63.0078 36.9687 63.1953 38.0078 63.8906 38.6797C65 39.2109 66.3359 38.7422 66.875 37.6328C67.289 36.7656 67.1015 35.7265 66.4062 35.0547Z" fill="#896024"/>
<path d="M50.1956 79.2501C40.2425 79.2501 33.1487 74.086 31.0159 70.836C30.6199 70.3243 30.3701 69.7147 30.293 69.0723C30.216 68.4298 30.3146 67.7785 30.5784 67.1876C30.9925 66.4298 31.7971 65.961 32.6643 65.9688C32.9846 65.9688 33.305 66.0235 33.6096 66.1251C39.0009 67.7485 44.6044 68.5569 50.2346 68.5235C55.8362 68.5548 61.4143 67.7423 66.7815 66.1251C67.0862 66.0235 67.4065 65.9767 67.7268 65.9688C68.594 65.961 69.3987 66.4298 69.8128 67.1876C70.0766 67.7785 70.1752 68.4298 70.0981 69.0723C70.0211 69.7147 69.7713 70.3243 69.3753 70.836C67.2425 74.086 60.1565 79.2501 50.1956 79.2501Z" fill="#422B0D" stroke="url(#paint5_linear_1580_618)" stroke-width="5" stroke-miterlimit="10"/>
<defs>
<radialGradient id="paint0_radial_1580_618" cx="0" cy="0" r="1" gradientUnits="userSpaceOnUse" gradientTransform="translate(49.625 49.125) scale(44.4922 44.4922)">
<stop offset="0.5" stop-color="white"/>
<stop offset="0.76" stop-color="#FDFDFD"/>
<stop offset="0.87" stop-color="#F6F6F6"/>
<stop offset="0.96" stop-color="#E9E9E9"/>
<stop offset="1" stop-color="#E0E0E0"/>
</radialGradient>
<radialGradient id="paint1_radial_1580_618" cx="0" cy="0" r="1" gradientUnits="userSpaceOnUse" gradientTransform="translate(77.7094 56.0333) scale(16.3828 11.9595)">
<stop stop-color="#ED7770"/>
<stop offset="0.08" stop-color="#ED7770" stop-opacity="0.97"/>
<stop offset="0.21" stop-color="#ED7770" stop-opacity="0.88"/>
<stop offset="0.35" stop-color="#ED7770" stop-opacity="0.74"/>
<stop offset="0.52" stop-color="#ED7770" stop-opacity="0.55"/>
<stop offset="0.71" stop-color="#ED7770" stop-opacity="0.29"/>
<stop offset="0.9" stop-color="#ED7770" stop-opacity="0"/>
</radialGradient>
<radialGradient id="paint2_radial_1580_618" cx="0" cy="0" r="1" gradientUnits="userSpaceOnUse" gradientTransform="translate(22.8281 56.0333) scale(16.3828 11.9595)">
<stop stop-color="#ED7770"/>
<stop offset="0.08" stop-color="#ED7770" stop-opacity="0.97"/>
<stop offset="0.21" stop-color="#ED7770" stop-opacity="0.88"/>
<stop offset="0.35" stop-color="#ED7770" stop-opacity="0.74"/>
<stop offset="0.52" stop-color="#ED7770" stop-opacity="0.55"/>
<stop offset="0.71" stop-color="#ED7770" stop-opacity="0.29"/>
<stop offset="0.9" stop-color="#ED7770" stop-opacity="0"/>
</radialGradient>
<radialGradient id="paint3_radial_1580_618" cx="0" cy="0" r="1" gradientUnits="userSpaceOnUse" gradientTransform="translate(51.5156 47.7578) scale(15.625 15.625)">
<stop stop-color="#FF4900"/>
<stop offset="0.38" stop-color="#FE4700"/>
<stop offset="0.59" stop-color="#FA3F00"/>
<stop offset="0.76" stop-color="#F43100"/>
<stop offset="0.9" stop-color="#EB1E00"/>
<stop offset="1" stop-color="#E30C00"/>
</radialGradient>
<linearGradient id="paint4_linear_1580_618" x1="38.9467" y1="7.35923" x2="55.515" y2="24.8737" gradientUnits="userSpaceOnUse">
<stop stop-color="#FF4900"/>
<stop offset="1" stop-color="#E30C00"/>
</linearGradient>
<linearGradient id="paint5_linear_1580_618" x1="28.705" y1="72.6095" x2="71.6862" y2="72.6095" gradientUnits="userSpaceOnUse">
<stop stop-color="#FF4900"/>
<stop offset="1" stop-color="#E30C00"/>
</linearGradient>
</defs>
</svg>
