<svg width="1000" height="1000" viewBox="0 0 1000 1000" fill="none" xmlns="http://www.w3.org/2000/svg">
<path d="M361.881 88.2056V0H0V1000H1000V0H614.852L571.287 122.48L557.426 191.028L599.01 233.367H660.396L747.03 191.028L899.505 180.948L909.406 279.738V333.669L875.743 386.089H747.03L678.218 396.169L660.396 448.589L678.218 498.992L747.03 560.988L850 585.181L927.228 601.31L909.406 714.214V879.032L810.396 931.452L678.218 866.935L660.396 748.488L632.673 661.794L583.168 601.31L507.921 627.52L482.178 734.375L557.426 815.02L583.168 879.032L545.545 965.726H361.881L195.545 945.565L114.851 854.839L172.277 815.02L274.752 786.794L334.158 734.375L320.297 627.52L262.871 601.31L195.545 639.617L102.97 677.923L65.3465 585.181L91.0891 498.992L128.713 414.315H195.545L274.752 498.992L344.059 545.363H435.149L466.337 476.815L411.386 414.315L320.297 386.089V311.492L397.525 257.56L445.049 205.141L411.386 122.48L361.881 88.2056Z" stroke="black"/>
</svg>
